<mxfile host="app.diagrams.net" modified="2020-12-07T13:59:22.072Z" agent="5.0 (Windows NT 10.0; Win64; x64) AppleWebKit/537.36 (KHTML, like Gecko) Chrome/86.0.4240.198 Safari/537.36" etag="Jy3seFncuPhYwzLbqHNq" version="13.10.6" type="github">
  <diagram id="DgriANRo6SjlQrBQB8I8" name="Page-1">
    <mxGraphModel dx="1278" dy="575" grid="1" gridSize="10" guides="1" tooltips="1" connect="1" arrows="1" fold="1" page="1" pageScale="1" pageWidth="827" pageHeight="1169" math="0" shadow="0">
      <root>
        <mxCell id="0" />
        <mxCell id="1" parent="0" />
        <mxCell id="86dVdtpe8MZ_GBPZOqXo-11" style="edgeStyle=orthogonalEdgeStyle;rounded=0;orthogonalLoop=1;jettySize=auto;html=1;" parent="1" source="86dVdtpe8MZ_GBPZOqXo-2" target="86dVdtpe8MZ_GBPZOqXo-38" edge="1">
          <mxGeometry relative="1" as="geometry">
            <mxPoint x="316" y="90" as="targetPoint" />
          </mxGeometry>
        </mxCell>
        <mxCell id="86dVdtpe8MZ_GBPZOqXo-2" value="Gerente da BU" style="shape=umlActor;verticalLabelPosition=bottom;verticalAlign=top;html=1;outlineConnect=0;" parent="1" vertex="1">
          <mxGeometry x="133.5" y="120" width="26.5" height="60" as="geometry" />
        </mxCell>
        <mxCell id="86dVdtpe8MZ_GBPZOqXo-19" value="" style="endArrow=classic;html=1;exitX=0.5;exitY=1;exitDx=0;exitDy=0;entryX=0.5;entryY=0;entryDx=0;entryDy=0;" parent="1" source="ezYw8p61TXl7o_NQsorU-2" target="ezYw8p61TXl7o_NQsorU-23" edge="1">
          <mxGeometry relative="1" as="geometry">
            <mxPoint x="177.5" y="290" as="sourcePoint" />
            <mxPoint x="177.5" y="370" as="targetPoint" />
            <Array as="points" />
          </mxGeometry>
        </mxCell>
        <mxCell id="86dVdtpe8MZ_GBPZOqXo-20" value="Sim" style="edgeLabel;resizable=0;html=1;align=center;verticalAlign=middle;" parent="86dVdtpe8MZ_GBPZOqXo-19" connectable="0" vertex="1">
          <mxGeometry relative="1" as="geometry" />
        </mxCell>
        <mxCell id="ezYw8p61TXl7o_NQsorU-6" style="edgeStyle=orthogonalEdgeStyle;rounded=0;orthogonalLoop=1;jettySize=auto;html=1;" edge="1" parent="1" source="86dVdtpe8MZ_GBPZOqXo-38" target="ezYw8p61TXl7o_NQsorU-1">
          <mxGeometry relative="1" as="geometry" />
        </mxCell>
        <mxCell id="86dVdtpe8MZ_GBPZOqXo-38" value="&lt;span&gt;Insere a previsão de receita e dos gastos na planilha Excel&lt;/span&gt;" style="shape=trapezoid;perimeter=trapezoidPerimeter;whiteSpace=wrap;html=1;fixedSize=1;" parent="1" vertex="1">
          <mxGeometry x="248.5" y="100" width="141.5" height="60" as="geometry" />
        </mxCell>
        <mxCell id="86dVdtpe8MZ_GBPZOqXo-68" value="&lt;span&gt;Fim do processo&lt;/span&gt;" style="ellipse;whiteSpace=wrap;html=1;rounded=1;" parent="1" vertex="1">
          <mxGeometry x="170.005" y="1025" width="120" height="80" as="geometry" />
        </mxCell>
        <mxCell id="86dVdtpe8MZ_GBPZOqXo-71" value="&lt;h1&gt;JSL - DRE (Demonstração do Resultado do Exercicio)&lt;/h1&gt;" style="text;html=1;strokeColor=none;fillColor=none;spacing=5;spacingTop=-20;whiteSpace=wrap;overflow=hidden;rounded=0;" parent="1" vertex="1">
          <mxGeometry x="10" y="10" width="710" height="40" as="geometry" />
        </mxCell>
        <mxCell id="ezYw8p61TXl7o_NQsorU-5" style="edgeStyle=orthogonalEdgeStyle;rounded=0;orthogonalLoop=1;jettySize=auto;html=1;" edge="1" parent="1" source="ezYw8p61TXl7o_NQsorU-1" target="ezYw8p61TXl7o_NQsorU-3">
          <mxGeometry relative="1" as="geometry" />
        </mxCell>
        <mxCell id="ezYw8p61TXl7o_NQsorU-1" value="&lt;span&gt;Submete a planilha para aprovação&lt;/span&gt;" style="shape=trapezoid;perimeter=trapezoidPerimeter;whiteSpace=wrap;html=1;fixedSize=1;" vertex="1" parent="1">
          <mxGeometry x="441.88" y="100" width="148.25" height="60" as="geometry" />
        </mxCell>
        <mxCell id="ezYw8p61TXl7o_NQsorU-24" value="" style="edgeStyle=orthogonalEdgeStyle;rounded=0;orthogonalLoop=1;jettySize=auto;html=1;" edge="1" parent="1" source="ezYw8p61TXl7o_NQsorU-2" target="ezYw8p61TXl7o_NQsorU-16">
          <mxGeometry relative="1" as="geometry">
            <Array as="points">
              <mxPoint x="640" y="555" />
              <mxPoint x="640" y="555" />
            </Array>
          </mxGeometry>
        </mxCell>
        <mxCell id="ezYw8p61TXl7o_NQsorU-25" value="Não" style="edgeLabel;html=1;align=center;verticalAlign=middle;resizable=0;points=[];" vertex="1" connectable="0" parent="ezYw8p61TXl7o_NQsorU-24">
          <mxGeometry x="0.2623" y="1" relative="1" as="geometry">
            <mxPoint as="offset" />
          </mxGeometry>
        </mxCell>
        <mxCell id="ezYw8p61TXl7o_NQsorU-2" value="Aprovado?" style="rhombus;whiteSpace=wrap;html=1;" vertex="1" parent="1">
          <mxGeometry x="461.01" y="500" width="110" height="110" as="geometry" />
        </mxCell>
        <mxCell id="ezYw8p61TXl7o_NQsorU-8" value="" style="edgeStyle=orthogonalEdgeStyle;rounded=0;orthogonalLoop=1;jettySize=auto;html=1;" edge="1" parent="1" source="ezYw8p61TXl7o_NQsorU-3" target="ezYw8p61TXl7o_NQsorU-7">
          <mxGeometry relative="1" as="geometry" />
        </mxCell>
        <mxCell id="ezYw8p61TXl7o_NQsorU-3" value="&lt;span&gt;Consolidação dos números em uma nova planilha aglomerando todos os segmentos da&amp;nbsp; diretoria&lt;/span&gt;" style="shape=trapezoid;perimeter=trapezoidPerimeter;whiteSpace=wrap;html=1;fixedSize=1;" vertex="1" parent="1">
          <mxGeometry x="441.88" y="230" width="148.25" height="80" as="geometry" />
        </mxCell>
        <mxCell id="ezYw8p61TXl7o_NQsorU-4" value="&lt;b&gt;As diretorias são compostas por:&lt;br&gt;Segmento&lt;br&gt;Filial e Centro de Custo&lt;br&gt;&lt;/b&gt;" style="text;html=1;strokeColor=none;fillColor=none;align=center;verticalAlign=middle;whiteSpace=wrap;rounded=0;" vertex="1" parent="1">
          <mxGeometry x="600" y="222.5" width="120" height="95" as="geometry" />
        </mxCell>
        <mxCell id="ezYw8p61TXl7o_NQsorU-10" value="" style="edgeStyle=orthogonalEdgeStyle;rounded=0;orthogonalLoop=1;jettySize=auto;html=1;" edge="1" parent="1" source="ezYw8p61TXl7o_NQsorU-7" target="ezYw8p61TXl7o_NQsorU-2">
          <mxGeometry relative="1" as="geometry" />
        </mxCell>
        <mxCell id="ezYw8p61TXl7o_NQsorU-7" value="&lt;span&gt;1ª prévia do mês, onde são apresentados os números consolidados&lt;/span&gt;" style="shape=trapezoid;perimeter=trapezoidPerimeter;whiteSpace=wrap;html=1;fixedSize=1;" vertex="1" parent="1">
          <mxGeometry x="441.88" y="360" width="148.25" height="80" as="geometry" />
        </mxCell>
        <mxCell id="ezYw8p61TXl7o_NQsorU-21" style="edgeStyle=orthogonalEdgeStyle;rounded=0;orthogonalLoop=1;jettySize=auto;html=1;" edge="1" parent="1" source="ezYw8p61TXl7o_NQsorU-9" target="86dVdtpe8MZ_GBPZOqXo-68">
          <mxGeometry relative="1" as="geometry" />
        </mxCell>
        <mxCell id="ezYw8p61TXl7o_NQsorU-9" value="&lt;span&gt;Reunião de resultados, onde são analisados os resultados e efetuados as justificativas em caso de divergências&lt;/span&gt;" style="shape=trapezoid;perimeter=trapezoidPerimeter;whiteSpace=wrap;html=1;fixedSize=1;" vertex="1" parent="1">
          <mxGeometry x="431.95" y="1020" width="168.12" height="90" as="geometry" />
        </mxCell>
        <mxCell id="ezYw8p61TXl7o_NQsorU-11" value="&lt;b&gt;Neste momento são adicionadas receitas ou despesas não previstas na prévia inicial&lt;br&gt;&lt;/b&gt;" style="text;html=1;strokeColor=none;fillColor=none;align=center;verticalAlign=middle;whiteSpace=wrap;rounded=0;" vertex="1" parent="1">
          <mxGeometry x="311.94999999999993" y="672.5" width="120" height="95" as="geometry" />
        </mxCell>
        <mxCell id="ezYw8p61TXl7o_NQsorU-26" style="edgeStyle=orthogonalEdgeStyle;rounded=0;orthogonalLoop=1;jettySize=auto;html=1;" edge="1" parent="1" source="ezYw8p61TXl7o_NQsorU-16" target="ezYw8p61TXl7o_NQsorU-23">
          <mxGeometry relative="1" as="geometry">
            <Array as="points">
              <mxPoint x="734" y="720" />
            </Array>
          </mxGeometry>
        </mxCell>
        <mxCell id="ezYw8p61TXl7o_NQsorU-16" value="&lt;span&gt;Efetuado ajustes&lt;/span&gt;" style="shape=trapezoid;perimeter=trapezoidPerimeter;whiteSpace=wrap;html=1;fixedSize=1;" vertex="1" parent="1">
          <mxGeometry x="670" y="610" width="128.25" height="55" as="geometry" />
        </mxCell>
        <mxCell id="ezYw8p61TXl7o_NQsorU-22" value="&lt;b&gt;Um gerente pode administrar mais de um CC (centro de custo) ou BU&lt;br&gt;&lt;/b&gt;" style="text;html=1;strokeColor=none;fillColor=none;align=center;verticalAlign=middle;whiteSpace=wrap;rounded=0;" vertex="1" parent="1">
          <mxGeometry x="90" y="200" width="120" height="80" as="geometry" />
        </mxCell>
        <mxCell id="ezYw8p61TXl7o_NQsorU-28" value="" style="edgeStyle=orthogonalEdgeStyle;rounded=0;orthogonalLoop=1;jettySize=auto;html=1;" edge="1" parent="1" source="ezYw8p61TXl7o_NQsorU-23" target="ezYw8p61TXl7o_NQsorU-27">
          <mxGeometry relative="1" as="geometry" />
        </mxCell>
        <mxCell id="ezYw8p61TXl7o_NQsorU-23" value="&lt;span&gt;2ª prévia do mês&lt;/span&gt;" style="shape=trapezoid;perimeter=trapezoidPerimeter;whiteSpace=wrap;html=1;fixedSize=1;" vertex="1" parent="1">
          <mxGeometry x="441.88" y="680" width="148.25" height="80" as="geometry" />
        </mxCell>
        <mxCell id="ezYw8p61TXl7o_NQsorU-29" value="Sim" style="edgeStyle=orthogonalEdgeStyle;rounded=0;orthogonalLoop=1;jettySize=auto;html=1;" edge="1" parent="1" source="ezYw8p61TXl7o_NQsorU-27" target="ezYw8p61TXl7o_NQsorU-9">
          <mxGeometry relative="1" as="geometry" />
        </mxCell>
        <mxCell id="ezYw8p61TXl7o_NQsorU-27" value="Aprovado?" style="rhombus;whiteSpace=wrap;html=1;" vertex="1" parent="1">
          <mxGeometry x="461.01" y="820" width="110" height="110" as="geometry" />
        </mxCell>
        <mxCell id="ezYw8p61TXl7o_NQsorU-30" value="" style="edgeStyle=orthogonalEdgeStyle;rounded=0;orthogonalLoop=1;jettySize=auto;html=1;exitX=1;exitY=0.5;exitDx=0;exitDy=0;" edge="1" parent="1" target="ezYw8p61TXl7o_NQsorU-33" source="ezYw8p61TXl7o_NQsorU-27">
          <mxGeometry relative="1" as="geometry">
            <mxPoint x="580" y="905" as="sourcePoint" />
            <Array as="points">
              <mxPoint x="743" y="875" />
            </Array>
          </mxGeometry>
        </mxCell>
        <mxCell id="ezYw8p61TXl7o_NQsorU-31" value="Não" style="edgeLabel;html=1;align=center;verticalAlign=middle;resizable=0;points=[];" vertex="1" connectable="0" parent="ezYw8p61TXl7o_NQsorU-30">
          <mxGeometry x="0.2623" y="1" relative="1" as="geometry">
            <mxPoint x="-78.26" y="1" as="offset" />
          </mxGeometry>
        </mxCell>
        <mxCell id="ezYw8p61TXl7o_NQsorU-32" style="edgeStyle=orthogonalEdgeStyle;rounded=0;orthogonalLoop=1;jettySize=auto;html=1;" edge="1" parent="1" source="ezYw8p61TXl7o_NQsorU-33">
          <mxGeometry relative="1" as="geometry">
            <mxPoint x="589.1200000000001" y="1070" as="targetPoint" />
            <Array as="points">
              <mxPoint x="742.99" y="1070" />
            </Array>
          </mxGeometry>
        </mxCell>
        <mxCell id="ezYw8p61TXl7o_NQsorU-33" value="&lt;span&gt;Efetuado ajustes&lt;/span&gt;" style="shape=trapezoid;perimeter=trapezoidPerimeter;whiteSpace=wrap;html=1;fixedSize=1;" vertex="1" parent="1">
          <mxGeometry x="678.99" y="950" width="128.25" height="55" as="geometry" />
        </mxCell>
        <mxCell id="ezYw8p61TXl7o_NQsorU-34" value="&lt;b&gt;Neste momento são adicionadas receitas ou despesas não previstas na prévia inicial&lt;br&gt;&lt;/b&gt;" style="text;html=1;strokeColor=none;fillColor=none;align=center;verticalAlign=middle;whiteSpace=wrap;rounded=0;" vertex="1" parent="1">
          <mxGeometry x="311.94999999999993" y="352.5" width="120" height="95" as="geometry" />
        </mxCell>
        <mxCell id="ezYw8p61TXl7o_NQsorU-35" value="&lt;b&gt;Efetuado as justificativas finais&lt;br&gt;&lt;/b&gt;" style="text;html=1;strokeColor=none;fillColor=none;align=center;verticalAlign=middle;whiteSpace=wrap;rounded=0;" vertex="1" parent="1">
          <mxGeometry x="456.01" y="1105" width="120" height="50" as="geometry" />
        </mxCell>
      </root>
    </mxGraphModel>
  </diagram>
</mxfile>
